<svg width="182" height="79" viewBox="0 0 182 79" fill="none" xmlns="http://www.w3.org/2000/svg">
<path fill-rule="evenodd" clip-rule="evenodd" d="M24 78H26.3781L27.81 74.9917H36.283L37.714 78H40L32.0813 61L24 78ZM32.0813 65.9907L35.2439 72.7996H28.8482L32.0813 65.9907Z" fill="black"/>
<path fill-rule="evenodd" clip-rule="evenodd" d="M57.8765 62.9814L56.36 64.5432C55.0575 63.3838 53.541 62.7917 51.8114 62.7917C48.0215 62.7917 44.9885 66.0097 44.9885 69.8431C44.9885 73.7468 48.0215 76.8474 51.9068 76.8474C53.6355 76.8474 55.1047 76.2793 56.36 75.1199L57.8765 76.6577C56.171 78.2667 54.1802 78.9995 51.8114 78.9995C46.7894 78.9995 42.8096 74.9062 42.8096 69.8431C42.8096 64.756 46.7653 60.5914 51.8114 60.5914C54.157 60.5914 56.1941 61.3964 57.8765 62.9814Z" fill="black"/>
<path fill-rule="evenodd" clip-rule="evenodd" d="M64.7713 76.1607H70.1018L71.6887 78.4082H62.5684V61.2547H64.7713V76.1607Z" fill="black"/>
<path fill-rule="evenodd" clip-rule="evenodd" d="M77.1151 78.4087V63.7155L79.0345 61.2543H86.2363V63.5017H79.318V68.7073H84.6485L83.1088 70.9316H79.318V76.1612H86.2363V78.4087H77.1151Z" fill="black"/>
<mask id="mask0_467_467" style="mask-type:alpha" maskUnits="userSpaceOnUse" x="90" y="60" width="19" height="19">
<path fill-rule="evenodd" clip-rule="evenodd" d="M90.5246 60.5921H108.505V79H90.5246V60.5921Z" fill="white"/>
</mask>
<g mask="url(#mask0_467_467)">
<path fill-rule="evenodd" clip-rule="evenodd" d="M99.5032 76.8472C103.364 76.8472 106.373 73.7004 106.373 69.8429C106.373 65.9633 103.412 62.7924 99.5032 62.7924C95.7133 62.7924 92.6803 66.0105 92.6803 69.8429C92.6803 73.6763 95.7133 76.8472 99.5032 76.8472ZM108.505 69.8429C108.505 74.93 104.549 79.0003 99.5032 79.0003C94.5044 79.0003 90.5246 74.9069 90.5246 69.8429C90.5246 64.7558 94.4803 60.5921 99.5032 60.5921C104.549 60.5921 108.505 64.7327 108.505 69.8429Z" fill="black"/>
</g>
<path fill-rule="evenodd" clip-rule="evenodd" d="M115.566 76.1607H117.698C121.204 76.1607 123.858 73.3211 123.858 69.843C123.858 66.3178 121.228 63.5022 117.698 63.5022H115.566V76.1607ZM113.362 63.691L115.306 61.2547H117.698C122.365 61.2547 126.061 65.1816 126.061 69.843C126.061 74.5286 122.365 78.4082 117.698 78.4082H113.362V63.691Z" fill="black"/>
<path fill-rule="evenodd" clip-rule="evenodd" d="M133.108 71.7361L133.207 71.8212L133.292 71.7361L134 71.044C134.268 70.7757 134.48 70.4361 134.48 70.14V70.0272C134.48 69.2925 133.873 68.7984 133.207 68.7984C132.542 68.7984 131.892 69.3064 131.892 70.041C131.892 70.6341 132.67 71.3688 133.108 71.7361ZM135.485 76.058L135.584 75.9729L133.179 73.6283L131.822 74.8857C131.581 75.1115 131.411 75.3659 131.411 75.7471C131.411 76.863 132.458 77.1878 133.307 77.1878C134.311 77.1878 134.791 76.6511 135.485 76.058ZM132.147 72.7955L132.246 72.6965L132.147 72.5975C131.397 71.849 130.62 71.1143 130.62 70.041C130.62 68.5865 131.779 67.4845 133.207 67.4845C134.607 67.4845 135.781 68.6004 135.781 70.0133C135.781 71.1856 135.06 71.7926 134.226 72.6262L134.126 72.7252L136.503 75.0689L137.945 73.6708L138.821 74.6313L137.449 75.9729L138.864 77.371L137.987 78.275L136.503 76.8917L135.979 77.4135C135.23 78.1482 134.311 78.473 133.278 78.473C131.581 78.473 130.111 77.5412 130.111 75.7471C130.111 74.7728 130.79 74.0807 131.454 73.459C131.709 73.2332 131.921 73.0213 132.147 72.7955Z" fill="black"/>
<path fill-rule="evenodd" clip-rule="evenodd" d="M157.147 62.9814L155.631 64.5432C154.328 63.3838 152.812 62.7917 151.082 62.7917C147.292 62.7917 144.259 66.0097 144.259 69.8431C144.259 73.7468 147.292 76.8474 151.178 76.8474C152.906 76.8474 154.376 76.2793 155.631 75.1199L157.147 76.6577C155.442 78.2667 153.451 78.9995 151.082 78.9995C146.06 78.9995 142.08 74.9062 142.08 69.8431C142.08 64.756 146.036 60.5914 151.082 60.5914C153.428 60.5914 155.465 61.3964 157.147 62.9814Z" fill="black"/>
<mask id="mask1_467_467" style="mask-type:alpha" maskUnits="userSpaceOnUse" x="160" y="60" width="19" height="19">
<path fill-rule="evenodd" clip-rule="evenodd" d="M160.11 60.5921H178.091V79H160.11V60.5921Z" fill="white"/>
</mask>
<g mask="url(#mask1_467_467)">
<path fill-rule="evenodd" clip-rule="evenodd" d="M169.088 76.8472C172.95 76.8472 175.959 73.7004 175.959 69.8429C175.959 65.9633 172.997 62.7924 169.088 62.7924C165.299 62.7924 162.266 66.0105 162.266 69.8429C162.266 73.6763 165.299 76.8472 169.088 76.8472ZM178.091 69.8429C178.091 74.93 174.134 79.0003 169.088 79.0003C164.09 79.0003 160.11 74.9069 160.11 69.8429C160.11 64.7558 164.065 60.5921 169.088 60.5921C174.134 60.5921 178.091 64.7327 178.091 69.8429Z" fill="black"/>
</g>
<mask id="mask2_467_467" style="mask-type:alpha" maskUnits="userSpaceOnUse" x="0" y="0" width="182" height="79">
<path fill-rule="evenodd" clip-rule="evenodd" d="M0 79H182V0H0V79Z" fill="white"/>
</mask>
<g mask="url(#mask2_467_467)">
<path fill-rule="evenodd" clip-rule="evenodd" d="M179.797 78.4088H182V76.1613H179.797V78.4088Z" fill="black"/>
<path fill-rule="evenodd" clip-rule="evenodd" d="M18.1315 72.9932V61.16H15.9054V61.1591L9.07142 73.9018L2.23835 61.1813V61.16L2.2263 61.1591V61.16H0.0122262L0.00296228 72.9932H0.000183105V78.4088H2.24946V72.9932H2.24483L2.23835 66.0602V65.9464L9.07142 78.492L15.9054 65.9963V72.9932H15.8934V78.4088H18.1436V72.9932H18.1315Z" fill="black"/>
<path fill-rule="evenodd" clip-rule="evenodd" d="M115.652 33.5982L106.48 28.1558L96.7879 33.6454L105.96 39.0878L115.652 33.5982Z" fill="#3C3C3B"/>
<path fill-rule="evenodd" clip-rule="evenodd" d="M115.652 23.098L106.48 17.6121V28.1555L115.652 33.5979V23.098Z" fill="#ECECEB"/>
<path fill-rule="evenodd" clip-rule="evenodd" d="M106.48 28.1562V17.6072L96.7888 23.0968V33.6458L106.48 28.1562Z" fill="#C0BFB7"/>
<path fill-rule="evenodd" clip-rule="evenodd" d="M126.061 27.6308L116.889 22.1884L107.197 27.678L116.37 33.1204L126.061 27.6308Z" fill="#3C3C3B"/>
<path fill-rule="evenodd" clip-rule="evenodd" d="M126.061 17.1306L116.889 11.6447V22.1881L126.061 27.6305V17.1306Z" fill="#ECECEB"/>
<path fill-rule="evenodd" clip-rule="evenodd" d="M116.889 22.1887V11.6397L107.197 17.1293V27.6783L116.889 22.1887Z" fill="#C0BFB7"/>
<path fill-rule="evenodd" clip-rule="evenodd" d="M105.961 27.6308L96.7884 22.1884L87.0964 27.678L96.2686 33.1204L105.961 27.6308Z" fill="#3C3C3B"/>
<path fill-rule="evenodd" clip-rule="evenodd" d="M105.961 17.1306L96.7884 11.6447V22.1881L105.961 27.6305V17.1306Z" fill="#ECECEB"/>
<path fill-rule="evenodd" clip-rule="evenodd" d="M96.7883 22.1887V11.6397L87.0964 17.1293V27.6783L96.7883 22.1887Z" fill="#C5C5C5"/>
<path fill-rule="evenodd" clip-rule="evenodd" d="M116.37 21.6634L107.197 16.221L97.5054 21.7106L106.678 27.153L116.37 21.6634Z" fill="black"/>
<path fill-rule="evenodd" clip-rule="evenodd" d="M116.37 11.1632L107.197 5.67734V16.2207L116.37 21.6631V11.1632Z" fill="#3C3C3B"/>
<path fill-rule="evenodd" clip-rule="evenodd" d="M107.197 16.2213V5.67233L97.5062 11.1619V21.7109L107.197 16.2213Z" fill="#535351"/>
<path fill-rule="evenodd" clip-rule="evenodd" d="M115.652 45.0081L106.48 39.5657L96.7879 45.0553L105.96 50.4977L115.652 45.0081Z" fill="#3C3C3B"/>
<path fill-rule="evenodd" clip-rule="evenodd" d="M115.652 34.5079L106.48 29.022V39.5654L115.652 45.0078V34.5079Z" fill="#ECECEB"/>
<path fill-rule="evenodd" clip-rule="evenodd" d="M106.48 39.566V29.017L96.7888 34.5066V45.0556L106.48 39.566Z" fill="#C0BFB7"/>
<path fill-rule="evenodd" clip-rule="evenodd" d="M126.061 39.0406L116.889 33.5982L107.197 39.0878L116.37 44.5302L126.061 39.0406Z" fill="#3C3C3B"/>
<path fill-rule="evenodd" clip-rule="evenodd" d="M126.061 28.5405L116.889 23.0546V33.598L126.061 39.0404V28.5405Z" fill="#ECECEB"/>
<path fill-rule="evenodd" clip-rule="evenodd" d="M116.889 33.5986V23.0496L107.197 28.5392V39.0882L116.889 33.5986Z" fill="#C0BFB7"/>
<path fill-rule="evenodd" clip-rule="evenodd" d="M105.961 39.0406L96.7884 33.5982L87.0964 39.0878L96.2686 44.5302L105.961 39.0406Z" fill="#3C3C3B"/>
<path fill-rule="evenodd" clip-rule="evenodd" d="M105.961 28.5405L96.7884 23.0546V33.598L105.961 39.0404V28.5405Z" fill="#ECECEB"/>
<path fill-rule="evenodd" clip-rule="evenodd" d="M96.7883 33.5986V23.0496L87.0964 28.5392V39.0882L96.7883 33.5986Z" fill="#C5C5C5"/>
<path fill-rule="evenodd" clip-rule="evenodd" d="M116.37 33.0732L107.197 27.6308L97.5054 33.1204L106.678 38.5628L116.37 33.0732Z" fill="#3C3C3B"/>
<path fill-rule="evenodd" clip-rule="evenodd" d="M116.37 22.573L107.197 17.0871V27.6305L116.37 33.0729V22.573Z" fill="#ECECEB"/>
<path fill-rule="evenodd" clip-rule="evenodd" d="M107.197 27.6312V17.0822L97.5062 22.5718V33.1208L107.197 27.6312Z" fill="#A7A7A7"/>
<path fill-rule="evenodd" clip-rule="evenodd" d="M68.3297 16.8996L77.5019 22.342L87.1938 16.8524L78.0216 11.41L68.3297 16.8996Z" fill="#3C3C3B"/>
<path fill-rule="evenodd" clip-rule="evenodd" d="M68.3297 27.3998L77.5019 32.8857V22.3423L68.3297 16.8999V27.3998Z" fill="#ECECEB"/>
<path fill-rule="evenodd" clip-rule="evenodd" d="M77.502 22.3417V32.8906L87.193 27.4011V16.8521L77.502 22.3417Z" fill="#C0BFB7"/>
<path fill-rule="evenodd" clip-rule="evenodd" d="M57.9208 22.8671L67.093 28.3095L76.7849 22.8199L67.6118 17.3775L57.9208 22.8671Z" fill="#3C3C3B"/>
<path fill-rule="evenodd" clip-rule="evenodd" d="M57.9208 33.3673L67.093 38.8532V28.3098L57.9208 22.8674V33.3673Z" fill="#ECECEB"/>
<path fill-rule="evenodd" clip-rule="evenodd" d="M67.093 28.3091V38.8581L76.7849 33.3685V22.8195L67.093 28.3091Z" fill="#C0BFB7"/>
<path fill-rule="evenodd" clip-rule="evenodd" d="M78.0211 22.8671L87.1933 28.3095L96.8852 22.8199L87.713 17.3775L78.0211 22.8671Z" fill="#3C3C3B"/>
<path fill-rule="evenodd" clip-rule="evenodd" d="M78.0211 33.3673L87.1933 38.8532V28.3098L78.0211 22.8674V33.3673Z" fill="#ECECEB"/>
<path fill-rule="evenodd" clip-rule="evenodd" d="M87.1935 28.3091V38.8581L96.8854 33.3685V22.8195L87.1935 28.3091Z" fill="#A7A7A7"/>
<path fill-rule="evenodd" clip-rule="evenodd" d="M67.6122 28.8345L76.7844 34.2769L86.4763 28.7873L77.3041 23.3449L67.6122 28.8345Z" fill="black"/>
<path fill-rule="evenodd" clip-rule="evenodd" d="M67.6122 39.3346L76.7844 44.8205V34.2772L67.6122 28.8347V39.3346Z" fill="#3C3C3B"/>
<path fill-rule="evenodd" clip-rule="evenodd" d="M76.7845 34.2765V44.8255L86.4755 39.3359V28.7869L76.7845 34.2765Z" fill="#535351"/>
<path fill-rule="evenodd" clip-rule="evenodd" d="M68.3297 5.48978L77.5019 10.9322L87.1938 5.44259L78.0216 0.000183105L68.3297 5.48978Z" fill="#3C3C3B"/>
<path fill-rule="evenodd" clip-rule="evenodd" d="M68.3297 15.99L77.5019 21.4758V10.9325L68.3297 5.49005V15.99Z" fill="#ECECEB"/>
<path fill-rule="evenodd" clip-rule="evenodd" d="M77.502 10.9318V21.4808L87.193 15.9912V5.44223L77.502 10.9318Z" fill="#C0BFB7"/>
<path fill-rule="evenodd" clip-rule="evenodd" d="M57.9208 11.4572L67.093 16.8996L76.7849 11.41L67.6118 5.96759L57.9208 11.4572Z" fill="#3C3C3B"/>
<path fill-rule="evenodd" clip-rule="evenodd" d="M57.9208 21.9574L67.093 27.4433V16.8999L57.9208 11.4575V21.9574Z" fill="#ECECEB"/>
<path fill-rule="evenodd" clip-rule="evenodd" d="M67.093 16.8993V27.4482L76.7849 21.9586V11.4097L67.093 16.8993Z" fill="#C0BFB7"/>
<path fill-rule="evenodd" clip-rule="evenodd" d="M78.0211 11.4572L87.1933 16.8996L96.8852 11.41L87.713 5.96759L78.0211 11.4572Z" fill="#3C3C3B"/>
<path fill-rule="evenodd" clip-rule="evenodd" d="M78.0211 21.9574L87.1933 27.4433V16.8999L78.0211 11.4575V21.9574Z" fill="#ECECEB"/>
<path fill-rule="evenodd" clip-rule="evenodd" d="M87.1935 16.8993V27.4482L96.8854 21.9586V11.4097L87.1935 16.8993Z" fill="#A7A7A7"/>
<path fill-rule="evenodd" clip-rule="evenodd" d="M67.6122 17.4246L76.7844 22.867L86.4763 17.3774L77.3041 11.935L67.6122 17.4246Z" fill="#3C3C3B"/>
<path fill-rule="evenodd" clip-rule="evenodd" d="M67.6122 27.9248L76.7844 33.4107V22.8673L67.6122 17.4249V27.9248Z" fill="#ECECEB"/>
<path fill-rule="evenodd" clip-rule="evenodd" d="M76.7845 22.8667V33.4156L86.4755 27.926V17.3771L76.7845 22.8667Z" fill="#A7A7A7"/>
</g>
</svg>
